<svg xmlns="http://www.w3.org/2000/svg" width="29" height="89" viewBox="0 0 29 89">
    <g fill="none" fill-rule="evenodd">
        <path fill="#7A3028" d="M18.421 0l3.947 1v37c0 5 2.632 17 2.632 20v9l-6.579-3L12 67c-.105-4-.158-7-.158-9 0-3 2.632-15 2.632-20V1l3.947-1z"/>
        <path fill="#000" d="M11.842 66C10.368 70.667 8.754 75 7 79c-1.754 4-4.088 7.333-7 10 7.895-2 14.035-4.667 18.421-8C22.807 77.667 25 72.667 25 66c-2.602-1.333-4.935-2-7-2-2.065 0-4.117.667-6.158 2z"/>
        <path stroke="#FFF" stroke-width="3" d="M10 68c2-3.333 4.667-5 8-5s6.333 1.667 9 5"/>
    </g>
</svg>
