<svg xmlns="http://www.w3.org/2000/svg" width="36" height="36" viewBox="0 0 36 36">
    <g fill="none" fill-rule="evenodd">
        <circle cx="18" cy="18" r="18" fill="#F2F7FA"/>
        <path fill="#CDD6DB" fill-rule="nonzero" d="M21.137 22.665l-.51-1.104c-.107-.292-.117-1.54-.117-1.54.752-.693 1.37-1.733 1.785-3.126.015.003.025.01.039.011.837.07 1.496-2.163 1.017-2.802-.182-.244-.375-.25-.542-.165.13-2.226-.377-4.454-2.475-4.979-.52-.96-1.475-.951-2.505-.957V8l-.024.001L17.781 8v.004c-2.047.012-4.232 1.279-5.417 2.864.272.49.282.395.543.682-.166.679-.168 1.6-.105 2.456-.187-.142-.42-.2-.642.097-.479.638.18 2.872 1.017 2.803a.357.357 0 0 0 .13-.036c.417 1.405 1.035 2.454 1.794 3.151 0 0-.01 1.248-.119 1.54l-.508 1.104s-2.175.756-4.548 2.095C8.742 25.429 8 26.65 8 28h20a3.449 3.449 0 0 0-1.7-2.981c-2.173-1.299-5.163-2.354-5.163-2.354z"/>
    </g>
</svg>
