<svg xmlns="http://www.w3.org/2000/svg" width="90" height="86" viewBox="0 0 90 86">
    <g fill="none" fill-rule="evenodd">
        <path fill="#EBEBEB" fill-rule="nonzero" d="M45.045 0C69.872 0 90 17.376 90 38.812c0 12.55-6.899 23.707-17.6 30.801l.01 16.385-14.695-9.936a51.597 51.597 0 0 1-12.67 1.563C20.219 77.625.092 60.249.092 38.812.09 17.376 20.218 0 45.046 0z"/>
        <path fill="#569BFF" d="M73.076 38.663c0-2.85-2.327-5.16-5.197-5.16s-5.196 2.31-5.196 5.16 2.327 5.16 5.196 5.16c2.87 0 5.197-2.31 5.197-5.16zM21.864 33.503c-2.87 0-5.197 2.31-5.197 5.16s2.327 5.16 5.197 5.16 5.197-2.31 5.197-5.16-2.327-5.16-5.197-5.16zM50.07 38.663c0-2.85-2.328-5.16-5.198-5.16-2.87 0-5.197 2.31-5.197 5.16s2.327 5.16 5.197 5.16 5.197-2.31 5.197-5.16z"/>
    </g>
</svg>
