<svg xmlns="http://www.w3.org/2000/svg" width="25" height="28" viewBox="0 0 25 28">
    <g fill="#B2BABF" fill-rule="nonzero">
        <path d="M19.066 10.76l3.475-4.281c.016.112.016.24.016.353v17.96c0 1.765-1.428 3.208-3.174 3.208H3.198C1.453 28 .024 26.557.024 24.793V6.832c0-1.764 1.429-3.208 3.174-3.208h15.503l-3.316 4.09c-.825 1.026-.683 2.55.333 3.383a2.37 2.37 0 0 0 3.348-.336zm-9.535 3.652c.551-1.4.809-2.032 2.287-1.917.857.11 2 1.23.872 2.55-.288.456-2.554 1.703-2.386 3.814.036.95 1.377 1.521 1.79.36.21-.938.275-1.06.757-1.66.781-1.009 2.703-1.602 2.308-4.358-.224-1.25-1.61-2.878-4.766-2.318-.754.115-2.921 1.29-2.777 3.426.09.772 1.394 1.36 1.915.103zm.252 7.449c0 .773.616 1.4 1.377 1.4.76 0 1.377-.627 1.377-1.4 0-.773-.617-1.4-1.377-1.4s-1.377.627-1.377 1.4z"/>
        <path d="M24.795 1.299l-7.443 9.173a.793.793 0 0 1-1.11.112.813.813 0 0 1-.111-1.122L23.573.289a.793.793 0 1 1 1.222 1.01z"/>
    </g>
</svg>
