<svg xmlns="http://www.w3.org/2000/svg" width="90" height="90" viewBox="0 0 90 90">
    <path fill="#B2BABF" fill-rule="nonzero" d="M45.02.047C20.185.047.05 20.182.05 45.019c0 24.836 20.134 44.971 44.97 44.971 24.838 0 44.972-20.135 44.972-44.971C89.992 20.182 69.858.047 45.021.047zm-1.444 72.147c-2.88 0-5.214-2.38-5.214-5.315 0-2.935 2.334-5.312 5.214-5.312 2.88 0 5.214 2.377 5.214 5.312 0 2.936-2.334 5.315-5.214 5.315zm14.562-33.396c-.72 1.37-1.574 2.553-2.564 3.55-.99.997-2.767 2.673-5.33 5.032-.71.664-1.278 1.246-1.704 1.752-.428.502-.746.963-.954 1.381a6.63 6.63 0 0 0-.485 1.253c-.114.42-.287 1.153-.516 2.201-.396 2.23-1.637 3.345-3.721 3.345-1.084 0-1.996-.365-2.736-1.093-.74-.73-1.109-1.812-1.109-3.248 0-1.798.27-3.358.812-4.675a11.92 11.92 0 0 1 2.158-3.472c.896-.995 2.105-2.18 3.627-3.554 1.333-1.198 2.298-2.103 2.891-2.713a9.196 9.196 0 0 0 1.502-2.042c.406-.75.61-1.565.61-2.444 0-1.714-.62-3.16-1.86-4.337-1.241-1.18-2.841-1.77-4.8-1.77-2.294 0-3.982.594-5.065 1.784-1.084 1.19-2.001 2.942-2.752 5.256-.71 2.422-2.053 3.632-4.033 3.632-1.167 0-2.154-.424-2.955-1.27-.802-.846-1.203-1.763-1.203-2.747 0-2.035.635-4.098 1.906-6.188 1.271-2.089 3.127-3.82 5.566-5.191 2.437-1.373 5.284-2.057 8.536-2.057 3.023 0 5.69.573 8.004 1.719 2.314 1.146 4.1 2.706 5.362 4.676 1.26 1.973 1.891 4.117 1.892 6.429 0 1.821-.36 3.42-1.079 4.791z"/>
</svg>
