<svg xmlns="http://www.w3.org/2000/svg" xmlns:xlink="http://www.w3.org/1999/xlink" width="168" height="185" viewBox="0 0 168 185">
    <defs>
        <rect id="a" width="100" height="146.667" x="30" y="15.333" rx="6.667"/>
        <path id="b" d="M0 100h100v40a6.667 6.667 0 0 1-6.667 6.667H6.667A6.667 6.667 0 0 1 0 140v-40z"/>
        <path id="c" d="M6.667 0h86.666A6.667 6.667 0 0 1 100 6.667V100H0V6.667A6.667 6.667 0 0 1 6.667 0z"/>
    </defs>
    <g fill="none" fill-rule="evenodd">
        <g stroke-linecap="round" stroke-linejoin="round" transform="rotate(30 74.536 98.13)">
            <use fill="#FFF" xlink:href="#a"/>
            <rect width="106" height="152.667" x="27" y="12.333" stroke="#55B6FF" stroke-width="6" rx="6.667"/>
        </g>
        <path fill="#E5EDF9" d="M103.65 19.333l47.017 27.146v30.718L99.396 166H64.35l-13.683-7.9V50.402l17.937-31.069h35.046z"/>
        <g stroke-linecap="round" stroke-linejoin="round" transform="translate(34 19.333)">
            <use fill="#FFF" xlink:href="#b"/>
            <path stroke="#55B6FF" stroke-width="6" d="M-3 97h106v43c0 5.339-4.328 9.667-9.667 9.667H6.667C1.327 149.667-3 145.339-3 140V97z"/>
        </g>
        <g stroke-linecap="round" stroke-linejoin="round" transform="translate(34 19.333)">
            <use fill="#EAF6FF" xlink:href="#c"/>
            <path stroke="#55B6FF" stroke-width="6" d="M6.667-3h86.666C98.673-3 103 1.328 103 6.667V103H-3V6.667C-3 1.327 1.328-3 6.667-3z"/>
        </g>
        <text fill="#55B6FF" font-family="BENMO-Jingyuan-Regular, BENMO Jingyuan Regular" font-size="66.667" transform="translate(34 19.333)">
            <tspan x="16.667" y="75.667">字</tspan>
        </text>
        <g stroke="#55B6FF" stroke-linecap="round" stroke-width="6">
            <path d="M49 139h16.667M79.333 139h40"/>
        </g>
        <g stroke="#55B6FF" stroke-linecap="round" stroke-width="6">
            <path d="M119 152.333h-16.667M88.667 152.333h-40"/>
        </g>
    </g>
</svg>
