<svg xmlns="http://www.w3.org/2000/svg" width="26" height="20" viewBox="0 0 26 20">
    <defs>
        <filter id="b" width="160%" height="185.7%" x="-32.5%" y="-32.1%" filterUnits="objectBoundingBox">
            <feOffset dy="2" in="SourceAlpha" result="shadowOffsetOuter1"/>
            <feGaussianBlur in="shadowOffsetOuter1" result="shadowBlurOuter1" stdDeviation="1.5"/>
            <feColorMatrix in="shadowBlurOuter1" result="shadowMatrixOuter1" values="0 0 0 0 0.552941176 0 0 0 0 0.756862745 0 0 0 0 0.290196078 0 0 0 0.301319067 0"/>
            <feMerge>
                <feMergeNode in="shadowMatrixOuter1"/>
                <feMergeNode in="SourceGraphic"/>
            </feMerge>
        </filter>
        <linearGradient id="a" x1="100%" x2="0%" y1="100%" y2="0%">
            <stop offset="0%" stop-color="#91CA49"/>
            <stop offset="100%" stop-color="#9EDA53"/>
        </linearGradient>
    </defs>
    <path fill="url(#a)" fill-rule="evenodd" d="M19.357 3.612L9.22 13.382l-.002.001-.102.098-.011-.01c-.414.35-.928.53-1.445.529a2.229 2.229 0 0 1-1.56-.619L.643 8.121a2.06 2.06 0 0 1 0-2.99 2.254 2.254 0 0 1 3.103 0L7.66 8.903 16.254.618a2.256 2.256 0 0 1 3.103 0 2.062 2.062 0 0 1 0 2.994z" filter="url(#b)" transform="translate(3 1)"/>
</svg>
