<svg xmlns="http://www.w3.org/2000/svg" width="40" height="40" viewBox="0 0 40 40">
    <g fill="none" fill-rule="evenodd">
        <circle cx="20" cy="20" r="20" fill="#F66858"/>
        <path fill="#FFF" fill-rule="nonzero" d="M23.918 25.212a.946.946 0 0 1-.685.288.953.953 0 0 1-.684-.288c-.38-.39-.38-1.012.002-1.4A4.702 4.702 0 0 0 23.9 20.5a4.718 4.718 0 0 0-1.35-3.318v.002a1 1 0 0 1-.002-1.395.955.955 0 0 1 1.369-.002 6.721 6.721 0 0 1 1.916 4.717 6.72 6.72 0 0 1-1.914 4.707zM17.5 26.757c-1.014-.861-2.461-2.5-3.75-2.5h-2.5c-.837 0-1.251-1.962-1.251-3.751s.279-3.75 1.25-3.75h2.5c1.264 0 2.698-1.555 3.751-2.5.719-.646 2.5-2.44 2.5 0v12.5c0 2.41-1.771.62-2.5 0z"/>
    </g>
</svg>
