<svg xmlns="http://www.w3.org/2000/svg" width="80" height="80" viewBox="0 0 80 80">
    <g fill="none" fill-rule="nonzero">
        <path fill="#4796D2" d="M69.632 24.54H10.368C4.676 24.54.062 29.154.062 34.847v25.767c0 5.692 4.614 10.307 10.307 10.307h59.263c5.692 0 10.307-4.615 10.307-10.307V34.847c0-5.693-4.615-10.307-10.307-10.307z"/>
        <path fill="#EBF2F6" d="M51.522.062H10.368a3.865 3.865 0 0 0-3.865 3.865v52.822a3.865 3.865 0 0 0 3.865 3.865h59.263a3.866 3.866 0 0 0 3.866-3.865V22.036L51.522.062z"/>
        <path fill="#CDD6DB" d="M41.933 15.522H16.166a1.933 1.933 0 1 0 0 3.865h25.767a1.933 1.933 0 1 0 0-3.865zm-27.7 16.104c0 1.067.866 1.933 1.933 1.933h47.669a1.933 1.933 0 0 0 0-3.865H16.166a1.933 1.933 0 0 0-1.933 1.932zm0 10c0 1.067.866 1.933 1.933 1.933h47.669a1.933 1.933 0 0 0 0-3.865H16.166a1.933 1.933 0 0 0-1.933 1.932zm0 10c0 1.067.866 1.933 1.933 1.933h47.669a1.933 1.933 0 0 0 0-3.865H16.166a1.933 1.933 0 0 0-1.933 1.932z"/>
        <path fill="#4EA9ED" d="M77.699 29.714L2.62 78.399c1.118.947 2.54 1.54 4.112 1.54h66.785c3.547 0 6.422-2.9 6.422-6.478V34.593c0-1.958-.879-3.692-2.24-4.879z"/>
        <path fill="#55B6FF" d="M2.307 29.996C.943 31.176.062 32.9.062 34.847v38.651a6.441 6.441 0 0 0 6.441 6.441h66.995c1.577 0 3.003-.589 4.122-1.531L2.307 29.996z"/>
        <path fill="#040000" fill-opacity=".101" d="M52.884 1.423L53 21l20.498 10v-8.964z"/>
        <path fill="#F6F9FB" d="M51.595.135v17.963a3.864 3.864 0 0 0 3.865 3.865h17.964L51.595.135z"/>
    </g>
</svg>
