<svg xmlns="http://www.w3.org/2000/svg" width="80" height="80" viewBox="0 0 80 80">
    <defs>
        <linearGradient id="a" x1="100%" x2="0%" y1="100%" y2="0%">
            <stop offset="0%" stop-color="#91CA49"/>
            <stop offset="100%" stop-color="#9EDA53"/>
        </linearGradient>
    </defs>
    <path fill="url(#a)" fill-rule="nonzero" d="M40 80C17.926 80 0 62.074 0 40S17.926 0 40 0s40 17.926 40 40-17.926 40-40 40zm-5.185-24.296c1.333 0 2.666-.445 3.704-1.482L58.37 34.37c2.074-2.074 2.074-5.333 0-7.407s-5.333-2.074-7.407 0L34.667 43.259l-5.778-5.778c-2.074-2.074-5.333-2.074-7.26 0-2.073 2.075-2.073 5.334 0 7.26l9.482 9.481c1.037 1.037 2.37 1.482 3.704 1.482z"/>
</svg>
