<svg xmlns="http://www.w3.org/2000/svg" width="22" height="18" viewBox="0 0 22 18">
    <path fill="#7F8C94" fill-rule="nonzero" d="M22 2.163c-.37.205-1.482.617-2.517.72.664-.362 1.648-1.544 1.89-2.483-.638.412-2.106 1.011-2.83 1.011v.001A4.513 4.513 0 0 0 15.263 0c-2.506 0-4.539 2.046-4.539 4.57 0 .35.04.692.115 1.02C7.438 5.5 3.72 3.784 1.481.847.105 3.246 1.296 5.914 2.858 6.886c-.534.04-1.519-.062-1.982-.517-.03 1.592.73 3.701 3.502 4.467-.534.29-1.48.206-1.89.145.144 1.343 2.013 3.1 4.057 3.1-.729.849-3.47 2.388-6.545 1.898A13.565 13.565 0 0 0 7.1 18c7.322 0 13.009-5.976 12.702-13.348l-.001-.025.001-.057-.002-.067a7.86 7.86 0 0 0 2.2-2.34z"/>
</svg>
