<svg xmlns="http://www.w3.org/2000/svg" width="84" height="84" viewBox="0 0 84 84">
    <defs>
        <filter id="a" width="135.7%" height="135.7%" x="-17.9%" y="-12.1%" filterUnits="objectBoundingBox">
            <feOffset dy="4" in="SourceAlpha" result="shadowOffsetOuter1"/>
            <feGaussianBlur in="shadowOffsetOuter1" result="shadowBlurOuter1" stdDeviation="3.5"/>
            <feColorMatrix in="shadowBlurOuter1" result="shadowMatrixOuter1" values="0 0 0 0 0.552941176 0 0 0 0 0.756862745 0 0 0 0 0.290196078 0 0 0 0.301319067 0"/>
            <feMerge>
                <feMergeNode in="shadowMatrixOuter1"/>
                <feMergeNode in="SourceGraphic"/>
            </feMerge>
        </filter>
        <linearGradient id="b" x1="100%" x2="0%" y1="100%" y2="0%">
            <stop offset="0%" stop-color="#91CA49"/>
            <stop offset="100%" stop-color="#9EDA53"/>
        </linearGradient>
    </defs>
    <g fill="none" fill-rule="evenodd" filter="url(#a)" transform="translate(7 3)">
        <path fill="url(#b)" fill-rule="nonzero" d="M34.973 69.947c19.315 0 34.972-15.657 34.972-34.973C69.945 15.66 54.288.002 34.973.002 15.657.002 0 15.659 0 34.974 0 54.29 15.657 69.947 34.973 69.947z"/>
        <path fill="#FFF" d="M53.776 30.375L33.673 49.901c0 .002-.001.002-.003.002l-.201.195-.023-.019a4.404 4.404 0 0 1-2.866 1.056 4.401 4.401 0 0 1-3.093-1.236l-10.82-10.511a4.137 4.137 0 0 1 0-5.977c1.697-1.649 4.453-1.649 6.153 0l7.76 7.539 17.042-16.557c1.7-1.648 4.458-1.645 6.154 0a4.143 4.143 0 0 1 0 5.982z"/>
    </g>
</svg>
