<svg xmlns="http://www.w3.org/2000/svg" width="32" height="25" viewBox="0 0 32 25">
    <g fill="none" fill-rule="nonzero">
        <path fill="#FED971" d="M14.666 12.34c-.161.16-.323.322-.323.644s.162.482.323.643l7.762 5.313c-2.264 3.22-5.983 5.312-9.864 5.312C5.934 24.252.6 18.94.6 12.34.599 5.74 5.935.427 12.564.427c4.366 0 8.247 2.254 10.349 5.956l-8.247 5.957z"/>
        <path fill="#454545" d="M10.323 7.292c0 1.15.924 2.083 2.064 2.083 1.14 0 2.065-.933 2.065-2.083 0-1.15-.925-2.084-2.065-2.084s-2.064.933-2.064 2.084z"/>
        <path fill="#B2BABF" d="M29.238 18.99a.908.908 0 0 1-1.314 0 .965.965 0 0 1 0-1.349 7.702 7.702 0 0 0 2.183-5.401 7.727 7.727 0 0 0-2.184-5.402.97.97 0 0 1 0-1.35.909.909 0 0 1 1.312 0 9.706 9.706 0 0 1 2.726 6.752 9.65 9.65 0 0 1-2.723 6.75zm-2.928-2.333a.881.881 0 0 1-1.272 0 .945.945 0 0 1 .003-1.313 4.429 4.429 0 0 0 1.252-3.103 4.444 4.444 0 0 0-1.254-3.11v.001a.943.943 0 0 1-.002-1.308.882.882 0 0 1 1.271-.002 6.331 6.331 0 0 1 1.78 4.422 6.33 6.33 0 0 1-1.778 4.413z"/>
    </g>
</svg>
