<svg xmlns="http://www.w3.org/2000/svg" width="50" height="65" viewBox="0 0 50 65">
    <path fill="#CDD6DB" fill-rule="nonzero" d="M43.75 21.667h-3.125v-6.19C40.625 6.932 33.625 0 25 0S9.375 6.933 9.375 15.476v6.19H6.25c-3.438 0-6.25 2.787-6.25 6.191V58.81C0 62.214 2.812 65 6.25 65h37.5c3.438 0 6.25-2.786 6.25-6.19V27.857c0-3.404-2.812-6.19-6.25-6.19zM24.49 49.766c-3.368 0-6.123-2.743-6.123-6.094 0-3.352 2.755-6.094 6.123-6.094 3.367 0 6.122 2.742 6.122 6.094 0 3.351-2.755 6.094-6.122 6.094zm10.204-27.422H15.306V15.97c0-5.448 4.347-9.877 9.694-9.877s9.694 4.429 9.694 9.877v6.373z"/>
</svg>
