<svg xmlns="http://www.w3.org/2000/svg" xmlns:xlink="http://www.w3.org/1999/xlink" width="182" height="140" viewBox="0 0 182 140">
    <defs>
        <path id="a" d="M96.235 121.745c7.311 3.553 15.865 5.595 25.005 5.595 26.93 0 48.76-17.724 48.76-39.587 0-21.864-21.83-39.588-48.76-39.588-26.929 0-48.76 17.724-48.76 39.588 0 10.425 4.964 19.91 13.078 26.98l-3.53 13.075 14.207-6.063z"/>
        <path id="b" d="M29.693 91.975c9.14 4.441 19.83 6.994 31.257 6.994 33.661 0 60.95-22.155 60.95-49.484C121.9 22.155 94.61 0 60.95 0 27.288 0 0 22.155 0 49.485c0 13.031 6.205 24.887 16.346 33.724l-4.413 16.345 17.76-7.579z"/>
    </defs>
    <g fill="none" fill-rule="evenodd">
        <g stroke-linecap="round" stroke-linejoin="round" transform="matrix(-1 0 0 1 248.48 6)">
            <use fill="#FFF" xlink:href="#a"/>
            <path stroke="#55B6FF" stroke-width="5.94" d="M96.176 125l-18.61 7.941 4.65-17.23c-8.11-7.656-12.705-17.495-12.705-27.958 0-23.657 23.28-42.558 51.73-42.558 28.448 0 51.729 18.901 51.729 42.558 0 23.656-23.28 42.557-51.73 42.557-8.891 0-17.463-1.846-25.064-5.31z"/>
        </g>
        <path fill="#E5EDF9" d="M146.02 57.208c-5.78-1.96-12.124-3.043-18.78-3.043-26.929 0-48.76 17.724-48.76 39.588 0 9.197 3.864 17.662 10.345 24.383 32.685-.902 58.842-22.699 58.842-49.456 0-3.949-.57-7.79-1.647-11.472z"/>
        <g stroke-linecap="round">
            <g stroke-linejoin="round" transform="translate(6 6)">
                <use fill="#EAF6FF" xlink:href="#b"/>
                <path stroke="#55B6FF" stroke-width="5.94" d="M29.63 95.232L7.47 104.687l5.532-20.491C2.805 74.718-2.97 62.489-2.97 49.485c0-29.123 28.738-52.455 63.92-52.455 35.181 0 63.92 23.332 63.92 52.455 0 29.122-28.739 52.454-63.92 52.454-11.125 0-21.843-2.333-31.32-6.707z"/>
            </g>
            <g stroke="#55B6FF" stroke-width="5.94">
                <path d="M25.501 48.557h19.641M62.008 48.557h47.442M89.416 64.392h19.64M25.109 64.392H72.55"/>
            </g>
        </g>
    </g>
</svg>
