<svg xmlns="http://www.w3.org/2000/svg" width="22" height="22" viewBox="0 0 22 22">
    <path fill="#B2BABF" fill-rule="nonzero" d="M20.625 9.625H19.25c-.048 0-.088.023-.136.027a8.182 8.182 0 0 0-1.418-3.44c.035-.029.077-.04.11-.073l.972-.972a1.375 1.375 0 1 0-1.946-1.944l-.971.97c-.032.032-.044.076-.073.11a8.157 8.157 0 0 0-3.44-1.417c.004-.048.027-.088.027-.136V1.375a1.375 1.375 0 1 0-2.75 0V2.75c0 .048.023.088.027.136a8.157 8.157 0 0 0-3.44 1.418c-.029-.035-.041-.077-.073-.11l-.972-.972a1.375 1.375 0 1 0-1.945 1.944l.973.972c.032.033.073.045.109.074a8.164 8.164 0 0 0-1.418 3.44c-.048-.004-.088-.027-.136-.027H1.375a1.375 1.375 0 1 0 0 2.75H2.75c.048 0 .088-.022.136-.027.21 1.269.7 2.436 1.418 3.44-.035.029-.077.04-.109.073l-.973.972a1.376 1.376 0 0 0 1.945 1.944l.972-.972c.032-.032.044-.076.073-.11a8.176 8.176 0 0 0 3.44 1.419c-.004.048-.027.088-.027.136v1.375c0 .76.615 1.375 1.375 1.375s1.375-.615 1.375-1.375V19.25c0-.048-.023-.088-.027-.136 1.269-.21 2.436-.7 3.44-1.42.029.035.04.08.073.11l.972.973a1.375 1.375 0 1 0 1.945-1.944l-.972-.972c-.033-.032-.075-.043-.11-.073a8.182 8.182 0 0 0 1.418-3.44c.048.005.088.027.136.027h1.375a1.375 1.375 0 1 0 0-2.75zM11 15.125a4.126 4.126 0 1 1 .001-8.251A4.126 4.126 0 0 1 11 15.125z"/>
</svg>
