<svg xmlns="http://www.w3.org/2000/svg" width="168" height="163" viewBox="0 0 168 163">
    <g fill="none" fill-rule="evenodd">
        <g stroke="#55B6FF" stroke-linecap="round" stroke-linejoin="round" stroke-width="5.94">
            <path fill="#FFF" d="M158.03 56.802C147.722 25.552 118.31 3 83.636 3 49.116 3 19.81 25.352 9.38 56.386"/>
            <path d="M165 35.82l-6.68 21.272-20.644-6.077"/>
        </g>
        <g stroke="#55B6FF" stroke-linecap="round" stroke-linejoin="round" stroke-width="5.94">
            <path fill="#FFF" d="M9.97 106.198C20.278 137.448 49.69 160 84.364 160c34.52 0 63.825-22.352 74.256-53.386"/>
            <path d="M3 127.18l6.68-21.272 20.644 6.077"/>
        </g>
        <path fill="#E5EDF9" fill-rule="nonzero" d="M136.751 86.412c-8.68-10.995-29.913-29.32-53.082-29.32-23.168 0-44.4 18.325-53.081 29.32a13.563 13.563 0 0 0-3.123 7.951 13.563 13.563 0 0 0 3.123 7.952c8.68 10.995 29.913 29.32 53.081 29.32 23.169 0 44.402-18.325 53.082-29.32a13.44 13.44 0 0 0 3.122-7.952 13.44 13.44 0 0 0-3.122-7.95z"/>
        <g fill="#EAF6FF" stroke="#55B6FF" stroke-width="5.049">
            <path fill-rule="nonzero" d="M136.751 73.219c-8.68-10.995-29.913-29.32-53.082-29.32-23.168 0-44.4 18.325-53.081 29.32a13.563 13.563 0 0 0-3.123 7.951 13.563 13.563 0 0 0 3.123 7.951c8.68 10.995 29.913 29.32 53.081 29.32 23.169 0 44.402-18.325 53.082-29.32a13.44 13.44 0 0 0 3.122-7.95 13.44 13.44 0 0 0-3.122-7.952z"/>
            <path d="M83.67 101.925c-11.524 0-20.866-9.292-20.866-20.755 0-11.462 9.342-20.755 20.865-20.755 11.524 0 20.866 9.293 20.866 20.755a20.7 20.7 0 0 1-6.112 14.676 20.922 20.922 0 0 1-14.754 6.079z"/>
            <path stroke-linecap="round" d="M83.67 67.833c7.404 0 13.408 5.971 13.408 13.337"/>
        </g>
    </g>
</svg>
