<svg xmlns="http://www.w3.org/2000/svg" width="17" height="22" viewBox="0 0 17 22">
    <path fill="#CDD6DB" fill-rule="nonzero" d="M14.875 7.333h-1.062V5.238C13.813 2.347 11.433 0 8.5 0 5.568 0 3.188 2.347 3.188 5.238v2.095H2.125C.956 7.333 0 8.276 0 9.43v10.476C0 21.057.956 22 2.125 22h12.75C16.044 22 17 21.057 17 19.905V9.429c0-1.153-.956-2.096-2.125-2.096zM8.5 16.762c-1.169 0-2.125-.943-2.125-2.095 0-1.153.956-2.096 2.125-2.096s2.125.943 2.125 2.096c0 1.152-.956 2.095-2.125 2.095zm3.294-9.429H5.206V5.238c0-1.791 1.477-3.247 3.294-3.247s3.294 1.456 3.294 3.247v2.095z"/>
</svg>
