<svg xmlns="http://www.w3.org/2000/svg" xmlns:xlink="http://www.w3.org/1999/xlink" width="157" height="164" viewBox="0 0 157 164">
    <defs>
        <path id="a" d="M3.96 0h111.009a3.96 3.96 0 0 1 3.96 3.96V140.873a3.96 3.96 0 0 1-3.96 3.96H3.96a3.96 3.96 0 0 1-3.96-3.96V3.96A3.96 3.96 0 0 1 3.96 0z"/>
    </defs>
    <g fill="none" fill-rule="evenodd">
        <path fill="#E5EDF9" d="M23.174 19.167h111.009a3.96 3.96 0 0 1 3.96 3.96V160.04a3.96 3.96 0 0 1-3.96 3.96H23.174a3.96 3.96 0 0 1-3.96-3.96V23.127a3.96 3.96 0 0 1 3.96-3.96z"/>
        <g stroke-linecap="round" stroke-linejoin="round" transform="translate(6 6)">
            <use fill="#EAF6FF" xlink:href="#a"/>
            <path stroke="#55B6FF" stroke-width="5.94" d="M3.96-2.97h111.009a6.93 6.93 0 0 1 6.93 6.93v136.913a6.93 6.93 0 0 1-6.93 6.93H3.96a6.93 6.93 0 0 1-6.93-6.93V3.96a6.93 6.93 0 0 1 6.93-6.93z"/>
        </g>
        <g fill="#FFF" stroke="#55B6FF" stroke-width="5.94">
            <path d="M85.286 94.29l48.232-59.909c5.726-.438 10.571 1.098 14.536 4.609C152.018 42.5 154 46.67 154 51.498l-46.25 58.592-24.14 12.027a2.64 2.64 0 0 1-3.757-2.926l5.433-24.901z"/>
            <path d="M85.946 94.217c6.167 1.316 10.572 3.072 13.215 5.266 2.643 2.195 5.506 5.706 8.589 10.534M121.625 48.133c5.781.613 10.406 2.588 13.875 5.925 3.469 3.338 5.892 7.288 7.268 11.85"/>
        </g>
        <path stroke="#55B6FF" stroke-linecap="round" stroke-linejoin="round" stroke-width="5.94" d="M29.125 41.88h72.679M29.125 70.846h72.679M29.125 97.508h46.25M29.125 121.867h46.25"/>
    </g>
</svg>
