<svg xmlns="http://www.w3.org/2000/svg" width="20" height="20" viewBox="0 0 20 20">
    <path fill="#FFF" fill-rule="nonzero" d="M10 0C4.478 0 0 4.477 0 10s4.478 10 10 10 10-4.477 10-10S15.522 0 10 0zM2.917 10a.416.416 0 1 1-.834 0c0-4.365 3.552-7.917 7.917-7.917a.416.416 0 1 1 0 .834A7.091 7.091 0 0 0 2.917 10zm4.166 0A2.92 2.92 0 0 1 10 7.083 2.92 2.92 0 0 1 12.917 10 2.92 2.92 0 0 1 10 12.917 2.92 2.92 0 0 1 7.083 10zM10 17.917a.416.416 0 1 1 0-.834c3.904 0 7.083-3.179 7.083-7.083a.416.416 0 1 1 .834 0c0 4.366-3.551 7.917-7.917 7.917z"/>
</svg>
