<svg xmlns="http://www.w3.org/2000/svg" width="21" height="22" viewBox="0 0 21 22">
    <g fill="#B2BABF" fill-rule="nonzero">
        <path d="M17.26 3.503a1.501 1.501 0 0 0-2.114.189 1.492 1.492 0 0 0 .188 2.11 7.404 7.404 0 0 1 2.644 5.688c0 4.106-3.361 7.459-7.478 7.459-4.117 0-7.478-3.353-7.478-7.46 0-2.184.982-4.294 2.644-5.688.642-.527.717-1.506.188-2.11-.528-.64-1.51-.715-2.115-.188A10.468 10.468 0 0 0 0 11.527C0 17.33 4.721 22 10.5 22S21 17.29 21 11.527c-.038-3.126-1.398-6.027-3.74-8.024z"/>
        <path d="M10.462 14.616c.831 0 1.511-.678 1.511-1.506V1.507c0-.829-.68-1.507-1.51-1.507C9.63 0 8.95.678 8.95 1.507V13.11c0 .828.68 1.506 1.511 1.506z"/>
    </g>
</svg>
