<svg xmlns="http://www.w3.org/2000/svg" width="90" height="63" viewBox="0 0 90 63">
    <g fill="#B2BABF" fill-rule="nonzero">
        <path d="M7.14 3.751l32.397 25.637c1.47 1.162 3.493 1.678 5.46 1.581 1.966.094 3.99-.42 5.46-1.58L82.853 3.75c2.59-2.045 2.002-3.716-1.291-3.716H8.435c-3.297 0-3.88 1.671-1.295 3.716z"/>
        <path d="M85.19 10.515l-35.402 26.85c-1.324.997-3.057 1.48-4.788 1.462-1.73.019-3.464-.468-4.788-1.462L4.809 10.515C2.181 8.525.031 9.593.031 12.886v44.059c0 3.293 2.699 5.986 5.995 5.986h77.948c3.296 0 5.995-2.696 5.995-5.986V12.886c.004-3.293-2.147-4.36-4.778-2.37z"/>
    </g>
</svg>
