<svg xmlns="http://www.w3.org/2000/svg" width="74" height="74" viewBox="0 0 74 74">
    <path fill="#B2BABF" fill-rule="nonzero" stroke="#B2BABF" stroke-width="3" d="M4.962 4.918c1.811 0 2.914 1.107 2.914 2.918v8.75C14.386 7.473 25.586 2 37.022 2 56.307 2 72 17.697 72 37c0 19.298-15.693 35-34.978 35-14.215 0-26.91-8.496-32.34-21.648a3.253 3.253 0 0 1 .004-2.506c.32-.78.94-1.431 1.777-1.777a3.274 3.274 0 0 1 2.506 0 3.3 3.3 0 0 1 1.777 1.777c4.41 10.683 14.726 17.587 26.276 17.587 15.671 0 28.42-12.757 28.42-28.437 0-15.68-12.749-28.438-28.42-28.438-9.805 0-19.574 5.7-24.776 13.851H22.45c1.811 0 2.913 1.107 2.913 2.918.005 1.816-1.102 2.923-2.913 2.923H4.962c-1.811 0-2.914-1.107-2.914-2.918v-17.5c0-1.811 1.103-2.914 2.914-2.914z"/>
</svg>
