<svg xmlns="http://www.w3.org/2000/svg" xmlns:xlink="http://www.w3.org/1999/xlink" width="116" height="40" viewBox="0 0 116 40">
    <defs>
        <path id="a" d="M.038.101H40.39v39.794H.038V.1z"/>
        <path id="c" d="M0 39.899h115.982V.105H0z"/>
    </defs>
    <g fill="none" fill-rule="evenodd">
        <g transform="translate(75.592 .004)">
            <mask id="b" fill="#fff">
                <use xlink:href="#a"/>
            </mask>
            <path fill="#F40" d="M.47 8.243c.931-1.518 8.745-4.904 15.294-6.493C22.314.161 30.637-.367 32.174.552c1.538.919 4.826 8.469 6.435 14.935 1.609 6.466 2.31 14.544 1.332 16.272-.98 1.728-8.65 4.88-15.2 6.47-6.549 1.588-14.967 2.14-16.504 1.22-1.537-.918-4.825-8.468-6.446-14.981C.171 17.955-.46 9.76.471 8.243" mask="url(#b)"/>
        </g>
        <path fill="#FFF" d="M85.178 5.978c1.108-.816 7.673-.995 12.808-.255 5.136.74 11.225 2.744 12.051 3.84.826 1.094.955 7.417.205 12.487s-2.62 11.03-3.824 11.982c-1.205.952-7.599 1.006-12.734.266-5.136-.74-11.3-2.755-12.126-3.85-.826-1.095-.955-7.418-.2-12.525.756-5.107 2.71-11.13 3.82-11.945"/>
        <path fill="#454545" d="M0 19.02c0-.895.164-1.78.492-2.655a7.2 7.2 0 0 1 1.433-2.345 7.254 7.254 0 0 1 2.302-1.673c.907-.427 1.939-.64 3.097-.64 1.367 0 2.55.296 3.547.888.997.592 1.74 1.363 2.228 2.314l-2.218 1.508a3.751 3.751 0 0 0-.711-1.044 3.565 3.565 0 0 0-.9-.671 4.08 4.08 0 0 0-1.005-.362 4.842 4.842 0 0 0-1.025-.113c-.725 0-1.357.145-1.894.434-.537.289-.983.664-1.339 1.126a4.941 4.941 0 0 0-.805 1.57 5.87 5.87 0 0 0-.272 1.745c0 .648.104 1.271.313 1.87.21.6.506 1.126.89 1.58.383.455.844.82 1.38 1.096a3.813 3.813 0 0 0 1.769.413c.335 0 .683-.042 1.046-.124a3.92 3.92 0 0 0 1.946-1.085c.28-.282.502-.623.67-1.022l2.364 1.342a4.41 4.41 0 0 1-1.014 1.457c-.44.42-.935.775-1.486 1.064-.551.29-1.14.51-1.768.66a7.843 7.843 0 0 1-1.842.228c-1.06 0-2.03-.22-2.908-.661a7.557 7.557 0 0 1-2.27-1.725 7.982 7.982 0 0 1-1.486-2.417A7.46 7.46 0 0 1 0 19.02M25.173 26.457h-2.804v-6.074c0-.853-.16-1.484-.481-1.89-.322-.406-.775-.61-1.36-.61-.252 0-.517.056-.796.166-.279.11-.544.265-.795.465s-.481.437-.69.712c-.21.276-.363.579-.46.91v6.321h-2.805V11.376h2.804v6.26a4.198 4.198 0 0 1 1.643-1.622 4.685 4.685 0 0 1 2.291-.568c.712 0 1.29.12 1.737.361.446.241.795.562 1.046.961.251.4.426.854.523 1.364a8.34 8.34 0 0 1 .147 1.57v6.755z"/>
        <mask id="d" fill="#fff">
            <use xlink:href="#c"/>
        </mask>
        <path fill="#454545" d="M27.62 26.457h2.805V15.632H27.62v10.825zm0-12.333h2.805v-2.748H27.62v2.748zM43.147 26.457h-2.804v-6.074c0-.867-.154-1.5-.46-1.9-.307-.4-.733-.6-1.277-.6-.279 0-.565.056-.858.166-.293.11-.568.265-.826.465-.259.2-.492.437-.701.712-.21.276-.363.579-.46.91v6.321h-2.805V15.632h2.532v2.004c.405-.689.99-1.226 1.758-1.612.767-.385 1.632-.578 2.595-.578.683 0 1.241.124 1.674.372.432.248.767.571 1.004.97.237.4.401.855.492 1.364.09.51.136 1.026.136 1.55v6.755zM53.526 20.135c-.07-.812-.374-1.463-.91-1.952-.538-.489-1.19-.733-1.957-.733-.377 0-.73.065-1.057.196a2.763 2.763 0 0 0-1.485 1.394c-.161.331-.255.696-.283 1.095h5.692zm-2.846 6.529c-.879 0-1.674-.148-2.386-.444a5.473 5.473 0 0 1-1.82-1.209 5.355 5.355 0 0 1-1.161-1.777 5.638 5.638 0 0 1-.408-2.128c0-.77.132-1.497.397-2.18a5.309 5.309 0 0 1 1.151-1.796 5.496 5.496 0 0 1 1.831-1.23c.718-.302 1.524-.454 2.417-.454.893 0 1.691.152 2.396.454.704.303 1.304.71 1.8 1.22.495.509.87 1.101 1.13 1.776.257.675.386 1.377.386 2.107 0 .18-.003.351-.01.517a2.108 2.108 0 0 1-.052.413h-8.475c.042.427.146.805.314 1.136a2.81 2.81 0 0 0 1.548 1.384c.335.124.684.186 1.047.186.557 0 1.084-.134 1.58-.403.494-.268.833-.623 1.014-1.064l2.407.661c-.405.827-1.05 1.505-1.936 2.035-.886.53-1.943.796-3.17.796zM62.273 26.664a8.58 8.58 0 0 1-2.7-.434c-.879-.29-1.632-.702-2.26-1.24l1.046-1.735c.67.468 1.322.823 1.957 1.064a5.302 5.302 0 0 0 1.894.362c.557 0 .997-.104 1.318-.31a.995.995 0 0 0 .481-.889c0-.385-.188-.668-.565-.847-.376-.179-.99-.385-1.841-.62a24.831 24.831 0 0 1-1.82-.557c-.503-.18-.907-.383-1.214-.61a2.087 2.087 0 0 1-.67-.785c-.14-.296-.21-.65-.21-1.064 0-.55.109-1.046.325-1.487.216-.44.52-.816.91-1.126a4.23 4.23 0 0 1 1.371-.713A5.637 5.637 0 0 1 62 15.425c.823 0 1.594.117 2.313.351a5.66 5.66 0 0 1 1.977 1.137l-1.13 1.673c-.558-.413-1.098-.716-1.622-.909a4.488 4.488 0 0 0-1.559-.29c-.474 0-.871.097-1.192.29-.321.193-.482.503-.482.93 0 .193.039.35.116.475.076.124.198.234.366.33.167.097.387.19.659.28.272.09.61.182 1.015.278.753.193 1.398.386 1.935.579.537.193.977.413 1.319.66.341.249.592.535.753.858.16.324.24.713.24 1.167 0 1.061-.397 1.898-1.192 2.51-.795.613-1.877.92-3.243.92M76.46 20.135c-.07-.812-.374-1.463-.91-1.952-.538-.489-1.19-.733-1.957-.733-.377 0-.73.065-1.057.196-.328.131-.617.313-.868.547a2.838 2.838 0 0 0-.618.847 2.95 2.95 0 0 0-.282 1.095h5.691zm-2.846 6.529c-.88 0-1.674-.148-2.386-.444a5.471 5.471 0 0 1-1.82-1.209 5.357 5.357 0 0 1-1.162-1.777 5.638 5.638 0 0 1-.408-2.128c0-.77.133-1.497.398-2.18a5.309 5.309 0 0 1 1.15-1.796 5.496 5.496 0 0 1 1.832-1.23c.718-.302 1.524-.454 2.417-.454.892 0 1.69.152 2.396.454.704.303 1.304.71 1.799 1.22a5.18 5.18 0 0 1 1.13 1.776c.258.675.387 1.377.387 2.107 0 .18-.003.351-.01.517a2.092 2.092 0 0 1-.053.413H70.81c.041.427.146.805.313 1.136a2.812 2.812 0 0 0 1.55 1.384c.334.124.682.186 1.045.186.558 0 1.085-.134 1.58-.403.495-.268.834-.623 1.015-1.064l2.406.661c-.404.827-1.05 1.505-1.935 2.035-.886.53-1.943.796-3.17.796zM94.194 26.48V18.06l-3.32 6.269h-1.36l-3.32-6.269v8.418H83.69V13.762h2.685l3.81 7.236 3.845-7.236h2.667V26.48zM105.895 20.998c-.06-.704-.324-1.268-.79-1.692-.465-.424-1.03-.636-1.696-.636a2.45 2.45 0 0 0-.916.17 2.397 2.397 0 0 0-1.288 1.21c-.139.286-.22.602-.245.948h4.935zm-2.467 5.66c-.762 0-1.452-.128-2.069-.385a4.747 4.747 0 0 1-1.578-1.047 4.643 4.643 0 0 1-1.007-1.54 4.887 4.887 0 0 1-.354-1.846c0-.668.115-1.298.345-1.89a4.6 4.6 0 0 1 .998-1.558 4.763 4.763 0 0 1 1.587-1.065c.623-.263 1.322-.394 2.096-.394s1.466.131 2.077.394c.61.263 1.13.615 1.56 1.057.43.441.756.955.98 1.54.223.585.335 1.194.335 1.827 0 .155-.003.304-.009.448a1.825 1.825 0 0 1-.045.358h-7.347c.036.37.127.698.272.985a2.438 2.438 0 0 0 1.342 1.2c.29.107.593.161.907.161.484 0 .94-.116 1.37-.35.429-.232.722-.54.88-.922l2.086.574c-.35.716-.91 1.304-1.678 1.764-.768.46-1.684.69-2.748.69z" mask="url(#d)"/>
    </g>
</svg>
